<?xml version="1.0" encoding="UTF-8"?>
<!DOCTYPE svg PUBLIC "-//W3C//DTD SVG 1.1//EN" "http://www.w3.org/Graphics/SVG/1.1/DTD/svg11.dtd">
<svg xmlns="http://www.w3.org/2000/svg" version="1.1" width="125px" height="125px" style="shape-rendering:geometricPrecision; text-rendering:geometricPrecision; image-rendering:optimizeQuality; fill-rule:evenodd; clip-rule:evenodd" xmlns:xlink="http://www.w3.org/1999/xlink">
<g><path style="opacity:1" fill="#fefefe" d="M -0.5,-0.5 C 41.1667,-0.5 82.8333,-0.5 124.5,-0.5C 124.5,41.1667 124.5,82.8333 124.5,124.5C 82.8333,124.5 41.1667,124.5 -0.5,124.5C -0.5,82.8333 -0.5,41.1667 -0.5,-0.5 Z"/></g>
<g><path style="opacity:1" fill="#000000" d="M 59.5,22.5 C 61.1667,22.5 62.8333,22.5 64.5,22.5C 64.5,34.8333 64.5,47.1667 64.5,59.5C 76.8333,59.5 89.1667,59.5 101.5,59.5C 101.5,61.1667 101.5,62.8333 101.5,64.5C 89.1667,64.5 76.8333,64.5 64.5,64.5C 64.5,76.8333 64.5,89.1667 64.5,101.5C 62.8333,101.5 61.1667,101.5 59.5,101.5C 59.5,89.1667 59.5,76.8333 59.5,64.5C 47.1667,64.5 34.8333,64.5 22.5,64.5C 22.5,62.8333 22.5,61.1667 22.5,59.5C 34.8333,59.5 47.1667,59.5 59.5,59.5C 59.5,47.1667 59.5,34.8333 59.5,22.5 Z"/></g>
</svg>
